<?xml version="1.0" standalone="no"?>
<svg xmlns:xlink="http://www.w3.org/1999/xlink" id="wave" style="transform:rotate(0deg); transition: 0.3s" viewBox="0 0 1440 360" version="1.1" xmlns="http://www.w3.org/2000/svg"><defs><linearGradient id="sw-gradient-0" x1="0" x2="0" y1="1" y2="0"><stop stop-color="rgba(243, 106, 62, 1)" offset="0%"/><stop stop-color="rgba(255, 179, 11, 1)" offset="100%"/></linearGradient></defs><path style="transform:translate(0, 0px); opacity:1" fill="url(#sw-gradient-0)" d="M0,324L40,294C80,264,160,204,240,204C320,204,400,264,480,276C560,288,640,252,720,252C800,252,880,288,960,294C1040,300,1120,276,1200,258C1280,240,1360,228,1440,210C1520,192,1600,168,1680,186C1760,204,1840,264,1920,294C2000,324,2080,324,2160,270C2240,216,2320,108,2400,102C2480,96,2560,192,2640,216C2720,240,2800,192,2880,180C2960,168,3040,192,3120,180C3200,168,3280,120,3360,114C3440,108,3520,144,3600,168C3680,192,3760,204,3840,180C3920,156,4000,96,4080,60C4160,24,4240,12,4320,36C4400,60,4480,120,4560,144C4640,168,4720,156,4800,132C4880,108,4960,72,5040,84C5120,96,5200,156,5280,174C5360,192,5440,168,5520,138C5600,108,5680,72,5720,54L5760,36L5760,360L5720,360C5680,360,5600,360,5520,360C5440,360,5360,360,5280,360C5200,360,5120,360,5040,360C4960,360,4880,360,4800,360C4720,360,4640,360,4560,360C4480,360,4400,360,4320,360C4240,360,4160,360,4080,360C4000,360,3920,360,3840,360C3760,360,3680,360,3600,360C3520,360,3440,360,3360,360C3280,360,3200,360,3120,360C3040,360,2960,360,2880,360C2800,360,2720,360,2640,360C2560,360,2480,360,2400,360C2320,360,2240,360,2160,360C2080,360,2000,360,1920,360C1840,360,1760,360,1680,360C1600,360,1520,360,1440,360C1360,360,1280,360,1200,360C1120,360,1040,360,960,360C880,360,800,360,720,360C640,360,560,360,480,360C400,360,320,360,240,360C160,360,80,360,40,360L0,360Z"/></svg>