<?xml version="1.0" standalone="no"?>
<svg xmlns:xlink="http://www.w3.org/1999/xlink" id="wave" style="transform:rotate(0deg); transition: 0.3s" viewBox="0 0 1440 370" version="1.1" xmlns="http://www.w3.org/2000/svg"><defs><linearGradient id="sw-gradient-0" x1="0" x2="0" y1="1" y2="0"><stop stop-color="rgba(111.932, 92.034, 77.518, 1)" offset="0%"/><stop stop-color="rgba(182.513, 182.513, 182.513, 1)" offset="100%"/></linearGradient></defs><path style="transform:translate(0, 0px); opacity:1" fill="url(#sw-gradient-0)" d="M0,185L48,166.5C96,148,192,111,288,123.3C384,136,480,197,576,209.7C672,222,768,185,864,172.7C960,160,1056,173,1152,154.2C1248,136,1344,86,1440,55.5C1536,25,1632,12,1728,43.2C1824,74,1920,148,2016,203.5C2112,259,2208,296,2304,302.2C2400,308,2496,284,2592,246.7C2688,210,2784,160,2880,166.5C2976,173,3072,234,3168,252.8C3264,271,3360,247,3456,228.2C3552,210,3648,197,3744,215.8C3840,234,3936,284,4032,271.3C4128,259,4224,185,4320,160.3C4416,136,4512,160,4608,160.3C4704,160,4800,136,4896,148C4992,160,5088,210,5184,228.2C5280,247,5376,234,5472,191.2C5568,148,5664,74,5760,92.5C5856,111,5952,222,6048,252.8C6144,284,6240,234,6336,197.3C6432,160,6528,136,6624,123.3C6720,111,6816,111,6864,111L6912,111L6912,370L6864,370C6816,370,6720,370,6624,370C6528,370,6432,370,6336,370C6240,370,6144,370,6048,370C5952,370,5856,370,5760,370C5664,370,5568,370,5472,370C5376,370,5280,370,5184,370C5088,370,4992,370,4896,370C4800,370,4704,370,4608,370C4512,370,4416,370,4320,370C4224,370,4128,370,4032,370C3936,370,3840,370,3744,370C3648,370,3552,370,3456,370C3360,370,3264,370,3168,370C3072,370,2976,370,2880,370C2784,370,2688,370,2592,370C2496,370,2400,370,2304,370C2208,370,2112,370,2016,370C1920,370,1824,370,1728,370C1632,370,1536,370,1440,370C1344,370,1248,370,1152,370C1056,370,960,370,864,370C768,370,672,370,576,370C480,370,384,370,288,370C192,370,96,370,48,370L0,370Z"/><defs><linearGradient id="sw-gradient-1" x1="0" x2="0" y1="1" y2="0"><stop stop-color="rgba(251, 146, 60, 1)" offset="0%"/><stop stop-color="rgba(223.495, 175.363, 68.967, 1)" offset="100%"/></linearGradient></defs><path style="transform:translate(0, 50px); opacity:0.9" fill="url(#sw-gradient-1)" d="M0,74L48,92.5C96,111,192,148,288,172.7C384,197,480,210,576,209.7C672,210,768,197,864,215.8C960,234,1056,284,1152,265.2C1248,247,1344,160,1440,104.8C1536,49,1632,25,1728,12.3C1824,0,1920,0,2016,24.7C2112,49,2208,99,2304,123.3C2400,148,2496,148,2592,148C2688,148,2784,148,2880,123.3C2976,99,3072,49,3168,49.3C3264,49,3360,99,3456,98.7C3552,99,3648,49,3744,37C3840,25,3936,49,4032,98.7C4128,148,4224,222,4320,265.2C4416,308,4512,321,4608,283.7C4704,247,4800,160,4896,135.7C4992,111,5088,148,5184,185C5280,222,5376,259,5472,277.5C5568,296,5664,296,5760,265.2C5856,234,5952,173,6048,154.2C6144,136,6240,160,6336,141.8C6432,123,6528,62,6624,86.3C6720,111,6816,222,6864,277.5L6912,333L6912,370L6864,370C6816,370,6720,370,6624,370C6528,370,6432,370,6336,370C6240,370,6144,370,6048,370C5952,370,5856,370,5760,370C5664,370,5568,370,5472,370C5376,370,5280,370,5184,370C5088,370,4992,370,4896,370C4800,370,4704,370,4608,370C4512,370,4416,370,4320,370C4224,370,4128,370,4032,370C3936,370,3840,370,3744,370C3648,370,3552,370,3456,370C3360,370,3264,370,3168,370C3072,370,2976,370,2880,370C2784,370,2688,370,2592,370C2496,370,2400,370,2304,370C2208,370,2112,370,2016,370C1920,370,1824,370,1728,370C1632,370,1536,370,1440,370C1344,370,1248,370,1152,370C1056,370,960,370,864,370C768,370,672,370,576,370C480,370,384,370,288,370C192,370,96,370,48,370L0,370Z"/></svg>